<?xml version="1.0" encoding="UTF-8" standalone="no"?>
<!DOCTYPE svg PUBLIC "-//W3C//DTD SVG 1.1//EN"
 "http://www.w3.org/Graphics/SVG/1.1/DTD/svg11.dtd">
<!-- Generated by graphviz version 12.1.1 (20240910.0053)
 -->
<!-- Title: INFRA Pages: 1 -->
<svg width="1035pt" height="404pt"
 viewBox="0.00 0.00 1035.06 404.00" xmlns="http://www.w3.org/2000/svg" xmlns:xlink="http://www.w3.org/1999/xlink">
<g id="graph0" class="graph" transform="scale(1 1) rotate(0) translate(4 400)">
<title>INFRA</title>
<polygon fill="white" stroke="none" points="-4,4 -4,-400 1031.06,-400 1031.06,4 -4,4"/>
<!-- kb_bucket -->
<g id="node1" class="node">
<title>kb_bucket</title>
<path fill="#fff5cd" stroke="black" stroke-width="2" d="M132.7,-281.45C132.7,-285.07 102.96,-288 66.35,-288 29.74,-288 0,-285.07 0,-281.45 0,-281.45 0,-222.55 0,-222.55 0,-218.93 29.74,-216 66.35,-216 102.96,-216 132.7,-218.93 132.7,-222.55 132.7,-222.55 132.7,-281.45 132.7,-281.45"/>
<path fill="none" stroke="black" stroke-width="2" d="M132.7,-281.45C132.7,-277.84 102.96,-274.91 66.35,-274.91 29.74,-274.91 0,-277.84 0,-281.45"/>
<text text-anchor="middle" x="66.35" y="-256.2" font-family="Arial" font-size="14.00">kb_bucket</text>
<text text-anchor="middle" x="66.35" y="-239.4" font-family="Arial" font-size="14.00">(AWS::S3::Bucket)</text>
</g>
<!-- bedrock_kb_role -->
<g id="node2" class="node">
<title>bedrock_kb_role</title>
<path fill="#e6e6e6" stroke="black" stroke-width="2" d="M504.58,-180C504.58,-180 402.12,-180 402.12,-180 396.12,-180 390.12,-174 390.12,-168 390.12,-168 390.12,-120 390.12,-120 390.12,-114 396.12,-108 402.12,-108 402.12,-108 504.58,-108 504.58,-108 510.58,-108 516.58,-114 516.58,-120 516.58,-120 516.58,-168 516.58,-168 516.58,-174 510.58,-180 504.58,-180"/>
<text text-anchor="middle" x="453.35" y="-148.2" font-family="Arial" font-size="14.00">bedrock_kb_role</text>
<text text-anchor="middle" x="453.35" y="-131.4" font-family="Arial" font-size="14.00">(AWS::IAM::Role)</text>
</g>
<!-- bedrock_kb_policy -->
<g id="node3" class="node">
<title>bedrock_kb_policy</title>
<path fill="#e6e6e6" stroke="black" stroke-width="2" d="M273.85,-288C273.85,-288 162.84,-288 162.84,-288 156.84,-288 150.84,-282 150.84,-276 150.84,-276 150.84,-228 150.84,-228 150.84,-222 156.84,-216 162.84,-216 162.84,-216 273.85,-216 273.85,-216 279.85,-216 285.85,-222 285.85,-228 285.85,-228 285.85,-276 285.85,-276 285.85,-282 279.85,-288 273.85,-288"/>
<text text-anchor="middle" x="218.35" y="-256.2" font-family="Arial" font-size="14.00">bedrock_kb_policy</text>
<text text-anchor="middle" x="218.35" y="-239.4" font-family="Arial" font-size="14.00">(AWS::IAM::Policy)</text>
</g>
<!-- bedrock_kb_policy&#45;&gt;bedrock_kb_role -->
<g id="edge1" class="edge">
<title>bedrock_kb_policy&#45;&gt;bedrock_kb_role</title>
<path fill="none" stroke="black" d="M286.28,-219.67C289.01,-218.43 291.7,-217.2 294.35,-216 322.06,-203.43 352.55,-189.77 379.36,-177.82"/>
<polygon fill="black" stroke="black" points="380.74,-181.04 388.45,-173.78 377.89,-174.65 380.74,-181.04"/>
</g>
<!-- encryption_policy -->
<g id="node4" class="node">
<title>encryption_policy</title>
<path fill="#e6e6e6" stroke="black" stroke-width="2" d="M692.06,-72C692.06,-72 410.63,-72 410.63,-72 404.63,-72 398.63,-66 398.63,-60 398.63,-60 398.63,-12 398.63,-12 398.63,-6 404.63,0 410.63,0 410.63,0 692.06,0 692.06,0 698.06,0 704.06,-6 704.06,-12 704.06,-12 704.06,-60 704.06,-60 704.06,-66 698.06,-72 692.06,-72"/>
<text text-anchor="middle" x="551.35" y="-40.2" font-family="Arial" font-size="14.00">encryption_policy</text>
<text text-anchor="middle" x="551.35" y="-23.4" font-family="Arial" font-size="14.00">(AWS::OpenSearchServerless::SecurityPolicy)</text>
</g>
<!-- network_policy -->
<g id="node5" class="node">
<title>network_policy</title>
<path fill="#e6e6e6" stroke="black" stroke-width="2" d="M1015.06,-72C1015.06,-72 733.63,-72 733.63,-72 727.63,-72 721.63,-66 721.63,-60 721.63,-60 721.63,-12 721.63,-12 721.63,-6 727.63,0 733.63,0 733.63,0 1015.06,0 1015.06,0 1021.06,0 1027.06,-6 1027.06,-12 1027.06,-12 1027.06,-60 1027.06,-60 1027.06,-66 1021.06,-72 1015.06,-72"/>
<text text-anchor="middle" x="874.35" y="-40.2" font-family="Arial" font-size="14.00">network_policy</text>
<text text-anchor="middle" x="874.35" y="-23.4" font-family="Arial" font-size="14.00">(AWS::OpenSearchServerless::SecurityPolicy)</text>
</g>
<!-- kb_collection -->
<g id="node6" class="node">
<title>kb_collection</title>
<path fill="#ffcfb3" stroke="black" stroke-width="2" d="M852.84,-173.45C852.84,-177.07 790.32,-180 713.35,-180 636.38,-180 573.86,-177.07 573.86,-173.45 573.86,-173.45 573.86,-114.55 573.86,-114.55 573.86,-110.93 636.38,-108 713.35,-108 790.32,-108 852.84,-110.93 852.84,-114.55 852.84,-114.55 852.84,-173.45 852.84,-173.45"/>
<path fill="none" stroke="black" stroke-width="2" d="M852.84,-173.45C852.84,-169.84 790.32,-166.91 713.35,-166.91 636.38,-166.91 573.86,-169.84 573.86,-173.45"/>
<text text-anchor="middle" x="713.35" y="-148.2" font-family="Arial" font-size="14.00">kb_collection</text>
<text text-anchor="middle" x="713.35" y="-131.4" font-family="Arial" font-size="14.00">(AWS::OpenSearchServerless::Collection)</text>
</g>
<!-- kb_collection&#45;&gt;encryption_policy -->
<g id="edge2" class="edge">
<title>kb_collection&#45;&gt;encryption_policy</title>
<path fill="none" stroke="black" d="M659.4,-107.7C645.13,-98.37 629.6,-88.2 614.87,-78.56"/>
<polygon fill="black" stroke="black" points="616.88,-75.7 606.6,-73.15 613.05,-81.56 616.88,-75.7"/>
</g>
<!-- kb_collection&#45;&gt;network_policy -->
<g id="edge3" class="edge">
<title>kb_collection&#45;&gt;network_policy</title>
<path fill="none" stroke="black" d="M766.96,-107.7C781.14,-98.37 796.58,-88.2 811.22,-78.56"/>
<polygon fill="black" stroke="black" points="813.01,-81.58 819.43,-73.16 809.16,-75.73 813.01,-81.58"/>
</g>
<!-- access_policy -->
<g id="node7" class="node">
<title>access_policy</title>
<path fill="#e6e6e6" stroke="black" stroke-width="2" d="M591.34,-288C591.34,-288 315.36,-288 315.36,-288 309.36,-288 303.36,-282 303.36,-276 303.36,-276 303.36,-228 303.36,-228 303.36,-222 309.36,-216 315.36,-216 315.36,-216 591.34,-216 591.34,-216 597.34,-216 603.34,-222 603.34,-228 603.34,-228 603.34,-276 603.34,-276 603.34,-282 597.34,-288 591.34,-288"/>
<text text-anchor="middle" x="453.35" y="-256.2" font-family="Arial" font-size="14.00">access_policy</text>
<text text-anchor="middle" x="453.35" y="-239.4" font-family="Arial" font-size="14.00">(AWS::OpenSearchServerless::AccessPolicy)</text>
</g>
<!-- access_policy&#45;&gt;bedrock_kb_role -->
<g id="edge5" class="edge">
<title>access_policy&#45;&gt;bedrock_kb_role</title>
<path fill="none" stroke="black" d="M453.35,-215.7C453.35,-207.93 453.35,-199.57 453.35,-191.43"/>
<polygon fill="black" stroke="black" points="456.85,-191.66 453.35,-181.66 449.85,-191.66 456.85,-191.66"/>
</g>
<!-- access_policy&#45;&gt;kb_collection -->
<g id="edge4" class="edge">
<title>access_policy&#45;&gt;kb_collection</title>
<path fill="none" stroke="black" d="M540.29,-215.56C564.83,-205.55 591.68,-194.6 616.75,-184.38"/>
<polygon fill="black" stroke="black" points="618.04,-187.64 625.98,-180.62 615.39,-181.16 618.04,-187.64"/>
</g>
<!-- kb -->
<g id="node8" class="node">
<title>kb</title>
<path fill="#b7e0ff" stroke="black" stroke-width="2" d="M871.3,-288C871.3,-288 633.4,-288 633.4,-288 627.4,-288 621.4,-282 621.4,-276 621.4,-276 621.4,-228 621.4,-228 621.4,-222 627.4,-216 633.4,-216 633.4,-216 871.3,-216 871.3,-216 877.3,-216 883.3,-222 883.3,-228 883.3,-228 883.3,-276 883.3,-276 883.3,-282 877.3,-288 871.3,-288"/>
<text text-anchor="middle" x="752.35" y="-256.2" font-family="Arial" font-size="14.00">kb</text>
<text text-anchor="middle" x="752.35" y="-239.4" font-family="Arial" font-size="14.00">(AWS::BedrockAgent::KnowledgeBase)</text>
</g>
<!-- kb&#45;&gt;bedrock_kb_role -->
<g id="edge6" class="edge">
<title>kb&#45;&gt;bedrock_kb_role</title>
<path fill="none" stroke="black" d="M652.37,-215.56C611.4,-201.03 564.84,-184.53 527.06,-171.13"/>
<polygon fill="black" stroke="black" points="528.67,-167.99 518.08,-167.95 526.33,-174.59 528.67,-167.99"/>
</g>
<!-- kb&#45;&gt;kb_collection -->
<g id="edge7" class="edge">
<title>kb&#45;&gt;kb_collection</title>
<path fill="none" stroke="black" d="M739.36,-215.7C736.43,-207.75 733.29,-199.19 730.22,-190.87"/>
<polygon fill="black" stroke="black" points="733.54,-189.74 726.8,-181.56 726.97,-192.16 733.54,-189.74"/>
</g>
<!-- data_source -->
<g id="node9" class="node">
<title>data_source</title>
<path fill="#fff5cd" stroke="black" stroke-width="2" d="M526.67,-389.45C526.67,-393.07 474.09,-396 409.35,-396 344.61,-396 292.02,-393.07 292.02,-389.45 292.02,-389.45 292.02,-330.55 292.02,-330.55 292.02,-326.93 344.61,-324 409.35,-324 474.09,-324 526.67,-326.93 526.67,-330.55 526.67,-330.55 526.67,-389.45 526.67,-389.45"/>
<path fill="none" stroke="black" stroke-width="2" d="M526.67,-389.45C526.67,-385.84 474.09,-382.91 409.35,-382.91 344.61,-382.91 292.02,-385.84 292.02,-389.45"/>
<text text-anchor="middle" x="409.35" y="-364.2" font-family="Arial" font-size="14.00">data_source</text>
<text text-anchor="middle" x="409.35" y="-347.4" font-family="Arial" font-size="14.00">(AWS::BedrockAgent::DataSource)</text>
</g>
<!-- data_source&#45;&gt;kb_bucket -->
<g id="edge9" class="edge">
<title>data_source&#45;&gt;kb_bucket</title>
<path fill="none" stroke="black" d="M291.54,-332.6C247.23,-321.51 196.45,-307.41 143.73,-288.7"/>
<polygon fill="black" stroke="black" points="145.18,-285.5 134.58,-285.41 142.81,-292.09 145.18,-285.5"/>
</g>
<!-- data_source&#45;&gt;kb -->
<g id="edge8" class="edge">
<title>data_source&#45;&gt;kb</title>
<path fill="none" stroke="black" d="M516.46,-325.9C551.53,-315.06 590.8,-302.93 627.08,-291.71"/>
<polygon fill="black" stroke="black" points="627.76,-295.17 636.28,-288.87 625.69,-288.48 627.76,-295.17"/>
</g>
</g>
</svg>
